<!DOCTYPE svg PUBLIC "-//W3C//DTD SVG 1.1//EN" "http://www.w3.org/Graphics/SVG/1.1/DTD/svg11.dtd">
<!-- Uploaded to: SVG Repo, www.svgrepo.com, Transformed by: SVG Repo Mixer Tools -->
<svg height="135px" width="135px" version="1.1" id="_x32_" xmlns="http://www.w3.org/2000/svg" xmlns:xlink="http://www.w3.org/1999/xlink" viewBox="0 0 512 512" xml:space="preserve" fill="#ffffff" stroke="#ffffff" transform="rotate(-45)">
<g id="SVGRepo_bgCarrier" stroke-width="0"/>
<g id="SVGRepo_tracerCarrier" stroke-linecap="round" stroke-linejoin="round" stroke="#CCCCCC" stroke-width="1.024"/>
<g id="SVGRepo_iconCarrier"> <style type="text/css"> .st0{fill:#b0b0b0;} </style> <g> <path class="st0" d="M378.114,480.006c-123.708,0-223.998-100.298-223.998-224.006c0-123.717,100.29-223.998,223.998-223.998 c11.226,0,22.235,0.858,33.019,2.467c2.742,0.416,3.524-1.342,1.167-2.65C375.655,11.568,333.528,0,288.692,0 c-141.384,0-256,114.616-256,256c0,141.392,114.615,256,256,256c45.812,0,88.798-12.067,126-33.152 c1.55-0.883,1.032-2.05-0.776-1.75C402.257,478.982,390.306,480.006,378.114,480.006z"/> <path class="st0" d="M479.062,226.39c-0.7-2.125-2.692-3.559-4.934-3.517l-63.096,0.925c-2.258,0.026-4.267-1.433-4.942-3.6 l-18.618-60.288c-0.667-2.133-2.634-3.592-4.876-3.592c-2.233,0-4.2,1.458-4.867,3.592l-18.618,60.288 c-0.675,2.166-2.684,3.625-4.942,3.6l-63.104-0.925c-2.234-0.042-4.225,1.392-4.925,3.517c-0.684,2.126,0.092,4.459,1.917,5.742 l51.586,36.344c1.842,1.291,2.618,3.658,1.884,5.808l-20.368,59.721c-0.717,2.125,0.016,4.467,1.826,5.775 c1.808,1.309,4.267,1.292,6.058-0.041l50.504-37.82c1.808-1.366,4.3-1.366,6.109,0l50.503,37.82c1.792,1.333,4.25,1.35,6.058,0.041 c1.809-1.308,2.542-3.65,1.825-5.775l-20.368-59.721c-0.733-2.15,0.033-4.517,1.883-5.808l51.587-36.344 C478.971,230.848,479.746,228.515,479.062,226.39z"/> </g> </g>
</svg>