<svg xmlns="http://www.w3.org/2000/svg" viewBox="0 0 80 80" id="masjid"><path d="M68.5 10.075V6a1 1 0 1 0-2 0v4.075c-3.663.491-6.5 3.63-6.5 7.425V36h-5v-.219c0-7.96-6.33-14.453-14.219-14.752V18.99c.063.002.125.009.188.009 1.603 0 3.11-.624 4.241-1.756a6.065 6.065 0 0 0 1.305-1.946 1 1 0 0 0-1.305-1.312 3.992 3.992 0 0 1-4.361-.865 3.99 3.99 0 0 1-.866-4.362 1 1 0 0 0-1.311-1.304 6.053 6.053 0 0 0-1.945 1.303A5.96 5.96 0 0 0 34.97 13a5.96 5.96 0 0 0 1.757 4.243 5.978 5.978 0 0 0 2.054 1.343v2.465C31.097 21.569 25 27.968 25 35.78V36h-5V17.5c0-3.796-2.837-6.934-6.5-7.425V6a1 1 0 1 0-2 0v4.075C7.837 10.566 5 13.705 5 17.5V73c0 1.103.897 2 2 2h66c1.103 0 2-.897 2-2V17.5c0-3.796-2.837-6.934-6.5-7.425zM36.97 13c0-.831.252-1.624.72-2.29.096 1.414.696 2.776 1.745 3.825s2.41 1.648 3.825 1.745c-1.522 1.07-3.777.892-5.12-.45A3.975 3.975 0 0 1 36.97 13zM73 25H62v-3h11v3zM27 35.781C27 28.733 32.733 23 39.781 23h.438C47.267 23 53 28.733 53 35.781V36H27v-.219zM7 22h11v3H7v-3zm5.5-10c3.032 0 5.5 2.467 5.5 5.5V20H7v-2.5c0-3.033 2.468-5.5 5.5-5.5zM7 27h11v46H7V27zm13 11h40v35H48V63c0-4.411-3.589-8-8-8s-8 3.589-8 8v10H20V38zm14 35V63c0-3.309 2.691-6 6-6s6 2.691 6 6v10H34zm28 0V27h11v46H62zm11-53H62v-2.5c0-3.033 2.468-5.5 5.5-5.5s5.5 2.467 5.5 5.5V20z" fill="currentColor"/><path d="M51 51h4c1.103 0 2-.897 2-2v-4c0-1.103-.897-2-2-2h-4c-1.103 0-2 .897-2 2v4c0 1.103.897 2 2 2zm0-6h4v4h-4v-4zm-13 6h4c1.103 0 2-.897 2-2v-4c0-1.103-.897-2-2-2h-4c-1.103 0-2 .897-2 2v4c0 1.103.897 2 2 2zm0-6h4v4h-4v-4zm-9-2h-4c-1.103 0-2 .897-2 2v4c0 1.103.897 2 2 2h4c1.103 0 2-.897 2-2v-4c0-1.103-.897-2-2-2zm0 6h-4v-4h4v4z" fill="currentColor"/></svg>
