<?xml version="1.0" encoding="iso-8859-1"?>
<!-- Uploaded to: SVG Repo, www.svgrepo.com, Generator: SVG Repo Mixer Tools -->
<svg fill="#000000" height="800px" width="800px" version="1.1" id="Layer_1" xmlns="http://www.w3.org/2000/svg" xmlns:xlink="http://www.w3.org/1999/xlink" 
	 viewBox="0 0 512 512" xml:space="preserve">
<g>
	<g>
		<path d="M465.401,100.848c-5.013,0-9.075,4.063-9.075,9.075v275.844H109.714v-66.191c0-5.012-4.062-9.075-9.075-9.075
			s-9.075,4.063-9.075,9.075v66.852c-13.953,2.018-26.441,8.615-35.889,18.217V63.113c0-21.686,15.432-39.834,35.889-44.043v34.142
			c0,5.012,4.062,9.075,9.075,9.075s9.075-4.063,9.075-9.075V18.149h346.613v61.524c-0.001,5.012,4.062,9.075,9.073,9.075
			c5.013,0,9.075-4.063,9.075-9.075V9.075c0-5.012-4.062-9.075-9.075-9.075H100.639C65.837,0,37.526,28.313,37.526,63.113V448.83
			c0,0.016-0.001,0.031-0.001,0.047c0,16.852,6.563,32.704,18.488,44.642C67.944,505.436,83.792,512,100.635,512h364.762
			c5.013,0,9.075-4.063,9.075-9.075l0.004-393.003C474.475,104.911,470.414,100.848,465.401,100.848z M456.321,493.851H100.635
			c-12,0-23.293-4.678-31.789-13.164c-8.49-8.5-13.167-19.79-13.171-31.79c0-0.005,0.001-0.01,0.001-0.014v-0.052
			c0.024-24.759,20.165-44.896,44.926-44.913c0.012,0,0.024,0.002,0.036,0.002c0.018,0,0.035-0.002,0.052-0.002H415.8v17.144
			H273.838c-5.013,0-9.075,4.063-9.075,9.075s4.062,9.075,9.075,9.075H415.8v17.326H331.02c-5.013,0-9.075,4.063-9.075,9.075
			c0,5.012,4.062,9.075,9.075,9.075h93.855c5.013,0,9.075-4.063,9.075-9.075v-61.695h22.372V493.851z"/>
	</g>
</g>
<g>
	<g>
		<path d="M300.771,456.536H88.716c-5.013,0-9.075,4.063-9.075,9.075c0,5.012,4.063,9.075,9.075,9.075h212.055
			c5.013,0,9.075-4.063,9.075-9.075C309.846,460.599,305.784,456.536,300.771,456.536z"/>
	</g>
</g>
<g>
	<g>
		<path d="M100.639,75.017c-5.013,0-9.075,4.063-9.075,9.075v202.677c0,5.012,4.062,9.075,9.075,9.075s9.075-4.063,9.075-9.075
			V84.091C109.714,79.08,105.651,75.017,100.639,75.017z"/>
	</g>
</g>
<g>
	<g>
		<path d="M422.94,84.475c-18.286,0-33.162-14.876-33.162-33.162c0-5.012-4.062-9.075-9.075-9.075h-193.44
			c-5.013,0-9.075,4.063-9.075,9.075c0,18.286-14.876,33.162-33.162,33.162c-5.013,0-9.075,4.063-9.075,9.075v170.036
			c0,5.012,4.062,9.075,9.075,9.075c5.013,0,9.075-4.063,9.075-9.075V101.82c21.034-3.769,37.664-20.401,41.433-41.433h176.897
			c3.769,21.032,20.4,37.664,41.433,41.433v198.127c-21.034,3.769-37.664,20.401-41.433,41.433H195.535
			c-3.769-21.032-20.4-37.664-41.433-41.433v-6.113c0-5.013-4.062-9.076-9.075-9.076c-5.013,0-9.075,4.063-9.075,9.075v14.384
			c0,5.012,4.062,9.075,9.075,9.075c18.286,0,33.162,14.876,33.162,33.162c0,5.012,4.062,9.075,9.075,9.075h193.44
			c5.013,0,9.075-4.063,9.075-9.075c0-18.286,14.876-33.162,33.162-33.162c5.013,0,9.075-4.063,9.075-9.075V93.549
			C432.015,88.538,427.953,84.475,422.94,84.475z"/>
	</g>
</g>
<g>
	<g>
		<path d="M218.18,421.061H100.816c-5.013,0-9.075,4.063-9.075,9.075s4.063,9.075,9.075,9.075H218.18
			c5.013,0,9.075-4.063,9.075-9.075S223.193,421.061,218.18,421.061z"/>
	</g>
</g>
<g>
	<g>
		<path d="M372.336,147.808c-1.067-3.285-3.907-5.679-7.326-6.176l-23.018-3.344l-10.294-20.858
			c-1.529-3.097-4.684-5.059-8.138-5.059s-6.609,1.961-8.138,5.059l-10.294,20.858l-23.018,3.344
			c-3.418,0.497-6.259,2.891-7.326,6.176c-1.067,3.285-0.177,6.892,2.295,9.302l16.657,16.236l-3.931,22.926
			c-0.584,3.405,0.815,6.845,3.609,8.875s6.497,2.299,9.556,0.691l20.588-10.824l20.588,10.824c1.329,0.698,2.778,1.043,4.222,1.043
			c1.883,0,3.754-0.584,5.335-1.733c2.795-2.03,4.195-5.471,3.609-8.875l-3.931-22.926l16.657-16.236
			C372.513,154.699,373.403,151.093,372.336,147.808z M337.298,163.68c-2.139,2.085-3.114,5.088-2.609,8.032l1.63,9.505
			l-8.536-4.488c-1.322-0.695-2.772-1.043-4.223-1.043c-1.451,0-2.9,0.347-4.223,1.043l-8.536,4.488l1.63-9.505
			c0.506-2.944-0.471-5.948-2.609-8.032l-6.906-6.731l9.544-1.387c2.956-0.43,5.511-2.286,6.833-4.964l4.267-8.647l4.268,8.647
			c1.322,2.679,3.877,4.535,6.833,4.964l9.544,1.387L337.298,163.68z"/>
	</g>
</g>
<g>
	<g>
		<path d="M381.29,202.908c-3.671-1.579-7.949-0.567-10.526,2.494c-12.36,14.688-30.441,23.111-49.607,23.111
			c-35.732,0-64.803-29.07-64.803-64.802c0-19.166,8.424-37.246,23.112-49.605c3.06-2.576,4.074-6.852,2.495-10.527
			c-1.581-3.676-5.37-5.885-9.357-5.434c-52.116,5.884-91.417,49.922-91.417,102.436c0,56.849,46.25,103.099,103.099,103.099
			c52.513,0,96.552-39.3,102.436-91.417C387.172,208.288,384.965,204.488,381.29,202.908z M284.288,285.531
			c-46.842,0-84.95-38.108-84.95-84.95c0-33.968,19.951-63.632,49.298-77.161c-6.771,12.176-10.43,25.997-10.43,40.29
			c-0.001,45.74,37.211,82.951,82.951,82.951c14.293,0,28.115-3.659,40.291-10.43C347.919,265.579,318.256,285.531,284.288,285.531z
			"/>
	</g>
</g>
</svg>